HIERARCHY
ROOT SpineBase
{
  OFFSET 0.000000 0.000000 0.000000
  CHANNELS 6 Xposition Yposition Zposition Zrotation Xrotation Yrotation
  JOINT SpineMid
  {
    OFFSET 0.000000 19.668504 0.000000
    CHANNELS 3 Zrotation Xrotation Yrotation
    JOINT SpineShoulder
    {
      OFFSET -0.122538 14.348566 -0.403124
      CHANNELS 3 Zrotation Xrotation Yrotation
      JOINT Neck
      {
        OFFSET -0.036295 4.729960 -0.223543
        CHANNELS 3 Zrotation Xrotation Yrotation
        JOINT Head
        {
          OFFSET -2.221677 15.423031 2.633818
          CHANNELS 3 Zrotation Xrotation Yrotation
          End Site
          {
            OFFSET 0 0 0
          }
        }
      }
      JOINT ShoulderLeft
      {
        OFFSET -12.884451 9.420535 13.623848
        CHANNELS 3 Zrotation Xrotation Yrotation
        JOINT ElbowLeft
        {
          OFFSET -22.372971 -9.724242 5.804063
          CHANNELS 3 Zrotation Xrotation Yrotation
          JOINT WristLeft
          {
            OFFSET 17.183240 5.747845 0.263407
            CHANNELS 3 Zrotation Xrotation Yrotation
            JOINT HandLeft
            {
              OFFSET 3.797152 -0.628003 -5.820531
              CHANNELS 3 Zrotation Xrotation Yrotation
              JOINT HandTipLeft
              {
                OFFSET 3.452156 1.754185 -3.462567
                CHANNELS 3 Zrotation Xrotation Yrotation
                End Site
                {
                  OFFSET 0 0 0
                }
              }
              JOINT ThumbLeft
              {
                OFFSET -1.618167 4.586068 -2.153690
                CHANNELS 3 Zrotation Xrotation Yrotation
                End Site
                {
                  OFFSET 0 0 0
                }
              }
            }
          }
        }
      }
      JOINT ShoulderRight
      {
        OFFSET -15.486026 -3.287863 14.493502
        CHANNELS 3 Zrotation Xrotation Yrotation
        JOINT ElbowRight
        {
          OFFSET 6.684497 -6.397101 -24.273516
          CHANNELS 3 Zrotation Xrotation Yrotation
          JOINT WristRight
          {
            OFFSET -8.362166 -15.346453 -18.801361
            CHANNELS 3 Zrotation Xrotation Yrotation
            JOINT HandRight
            {
              OFFSET -3.481583 -3.181745 -6.027121
              CHANNELS 3 Zrotation Xrotation Yrotation
              JOINT HandTipRight
              {
                OFFSET -4.580114 -1.234093 -2.951540
                CHANNELS 3 Zrotation Xrotation Yrotation
                End Site
                {
                  OFFSET 0 0 0
                }
              }
              JOINT ThumbRight
              {
                OFFSET -3.560514 -4.949428 0.483381
                CHANNELS 3 Zrotation Xrotation Yrotation
                End Site
                {
                  OFFSET 0 0 0
                }
              }
            }
          }
        }
      }
    }
  }
  JOINT HipLeft
  {
    OFFSET 1.400709 1.682720 -2.478283
    CHANNELS 3 Zrotation Xrotation Yrotation
    JOINT KneeLeft
    {
      OFFSET -38.527049 2.253039 0.528946
      CHANNELS 3 Zrotation Xrotation Yrotation
      JOINT AnkleLeft
      {
        OFFSET 29.586470 -9.776741 18.559897
        CHANNELS 3 Zrotation Xrotation Yrotation
        JOINT FootLeft
        {
          OFFSET -11.270531 -8.169472 5.140397
          CHANNELS 3 Zrotation Xrotation Yrotation
          End Site
          {
            OFFSET 0 0 0
          }
        }
      }
    }
  }
  JOINT HipRight
  {
    OFFSET -2.601674 -3.162828 -2.302123
    CHANNELS 3 Zrotation Xrotation Yrotation
    JOINT KneeRight
    {
      OFFSET -19.539138 3.408286 -25.860871
      CHANNELS 3 Zrotation Xrotation Yrotation
      JOINT AnkleRight
      {
        OFFSET -10.209541 -15.649729 18.592921
        CHANNELS 3 Zrotation Xrotation Yrotation
        JOINT FootRight
        {
          OFFSET -0.107694 6.812961 -6.171476
          CHANNELS 3 Zrotation Xrotation Yrotation
          End Site
          {
            OFFSET 0 0 0
          }
        }
      }
    }
  }
}
MOTION
Frames: 9
Frame Time: 0.033333
98.121359 17.313207 397.382850 -6.264635 5.136286 155.624246 1.606557 -1.271012 -155.409895 0.786870 -1.445727 -0.151311 -7.478847 -28.188729 -4.756587 0.000000 0.000000 0.000000 3.835267 -6.175277 0.300256 -1.139665 -0.019651 2.047384 3.803863 0.317013 -4.050573 -19.573150 -12.609029 -9.457210 0.000000 0.000000 0.000000 0.000000 0.000000 0.000000 16.112383 15.643662 -8.729382 9.615126 -17.677320 -9.046830 3.440157 -6.061968 -11.364657 6.360805 -4.427658 36.283094 0.000000 0.000000 0.000000 0.000000 0.000000 0.000000 -9.327631 1.821086 -161.162029 -0.806035 -0.271497 5.432371 11.476826 -3.844974 16.698778 0.000000 0.000000 0.000000 -5.443552 2.410233 -171.397538 1.850421 -0.811769 15.603209 53.390015 78.202791 24.441326 0.000000 0.000000 0.000000
98.323163 17.167913 398.791058 -5.889693 3.315623 151.842505 1.534686 -1.682011 -151.685675 0.273676 -0.766444 -0.149772 -8.357651 -27.894787 -4.844998 0.000000 0.000000 0.000000 4.197732 -5.282496 0.383804 0.333350 -0.733186 3.658066 1.761549 0.569682 -8.049057 -13.744288 -10.752838 -2.420166 0.000000 0.000000 0.000000 0.000000 0.000000 0.000000 15.950593 16.445100 -8.922606 9.566812 -17.527069 -9.169894 3.647055 -7.163105 -9.820494 4.845649 -3.703387 33.054432 0.000000 0.000000 0.000000 0.000000 0.000000 0.000000 -8.005285 -0.086926 -157.716351 -0.617608 0.334026 7.209161 12.310688 -2.836070 12.891628 0.000000 0.000000 0.000000 -4.977320 0.951750 -167.380410 1.913599 0.411476 15.692613 40.809482 62.159418 29.778991 0.000000 0.000000 0.000000
98.091619 17.035154 398.921148 -6.341544 2.722626 146.798817 1.396708 -2.136367 -146.613248 0.184695 -1.132060 -0.178659 -9.043221 -27.391645 -4.824235 0.000000 0.000000 0.000000 4.831355 -4.487118 0.413301 2.142237 -1.261118 4.883752 -0.461017 1.022759 -11.427953 -3.033912 -2.746622 6.383378 0.000000 0.000000 0.000000 0.000000 0.000000 0.000000 15.827859 16.579818 -9.085464 10.250353 -18.363229 -8.736290 2.102066 -5.432001 -9.596357 5.274039 -4.115878 30.855957 0.000000 0.000000 0.000000 0.000000 0.000000 0.000000 -6.862613 -0.848289 -152.507377 -0.733702 1.639537 8.741937 13.726427 -3.745851 10.216474 0.000000 0.000000 0.000000 -5.953678 0.238270 -162.605800 -0.379903 0.204744 14.074270 39.179409 59.592077 31.956289 0.000000 0.000000 0.000000
98.336495 17.059268 398.577135 -6.090011 2.914604 150.404198 0.989781 -2.051409 -150.228842 -0.176322 -1.008173 -0.196499 -8.832379 -26.749251 -4.594840 0.000000 0.000000 0.000000 4.584121 -4.355002 -0.097852 5.209361 -0.784335 3.662983 -3.159748 1.184290 -7.212085 6.779250 6.531283 7.810646 0.000000 0.000000 0.000000 0.000000 0.000000 0.000000 15.638588 16.109445 -9.067954 11.059817 -19.483377 -8.223009 0.094436 -2.806710 -9.842208 4.812693 -4.949667 27.473544 0.000000 0.000000 0.000000 0.000000 0.000000 0.000000 -7.043048 -0.392404 -154.186561 -1.703597 2.368428 8.578535 13.311373 -5.806246 9.331548 0.000000 0.000000 0.000000 -6.848440 1.387771 -165.069103 -3.299982 -1.047371 11.090337 42.139597 57.706118 34.050735 0.000000 0.000000 0.000000
99.015169 17.106639 398.049494 -5.508221 2.831103 160.635661 0.809414 -1.539433 -160.534898 -0.966208 -2.192473 -0.344528 -5.541443 -20.599191 -2.706075 0.000000 0.000000 0.000000 5.407792 -2.368041 -0.306629 6.043883 -1.220708 5.031213 -2.912695 2.770893 -10.533672 9.002908 8.973543 12.525765 0.000000 0.000000 0.000000 0.000000 0.000000 0.000000 16.604095 18.509921 -9.541052 11.674457 -21.965066 -7.110229 -2.980900 1.739194 -10.539556 9.197614 -7.319386 27.570895 0.000000 0.000000 0.000000 0.000000 0.000000 0.000000 -7.274450 0.627717 -163.400845 -2.668510 2.183381 7.063472 12.795095 -5.620957 9.355200 0.000000 0.000000 0.000000 -5.372836 2.058102 -174.075074 -2.296660 -1.907503 10.621821 44.621970 50.852004 34.567328 0.000000 0.000000 0.000000
99.380723 17.124027 397.604583 -5.586755 2.797812 177.533966 1.119357 -0.919522 -177.522796 -0.458190 -0.898847 -0.231149 -2.073065 -17.565699 -1.769243 0.000000 0.000000 0.000000 5.940627 -2.728323 -0.505269 6.219000 -1.572090 6.147639 -1.618102 4.439567 -13.388471 8.949156 9.211727 15.909820 0.000000 0.000000 0.000000 0.000000 0.000000 0.000000 17.181384 18.983247 -9.194728 12.608738 -25.215131 -6.066441 -7.633634 7.817299 -9.923374 12.105478 -10.530857 25.791262 0.000000 0.000000 0.000000 0.000000 0.000000 0.000000 -7.446883 2.369711 -176.328872 -2.537516 2.006278 4.075645 12.026870 -4.851017 6.990099 0.000000 0.000000 0.000000 -4.141817 2.692901 169.385067 0.278416 -0.688996 12.083244 45.181463 52.357593 35.429418 0.000000 0.000000 0.000000
99.095448 17.296887 397.593400 -6.226769 2.007552 -175.745525 1.477319 -0.881816 175.686285 -0.275240 -0.361276 -0.199693 0.322882 -15.003014 -1.178430 0.000000 0.000000 0.000000 7.361226 -2.106900 -0.506615 4.991355 -1.764786 6.219508 -0.415131 4.824768 -13.896202 3.663811 2.605094 14.227428 0.000000 0.000000 0.000000 0.000000 0.000000 0.000000 18.133123 19.511492 -9.239790 13.698885 -27.698596 -4.694126 -10.741310 12.022884 -9.138566 12.963648 -12.082373 25.400034 0.000000 0.000000 0.000000 0.000000 0.000000 0.000000 -8.160941 2.549872 176.311542 -2.066301 1.043096 3.139024 11.372343 -2.371419 6.389125 0.000000 0.000000 0.000000 -3.905311 1.559021 161.000492 4.403135 2.699889 16.737746 40.055740 50.184658 33.704481 0.000000 0.000000 0.000000
98.946850 17.333122 396.789960 -6.140049 4.267736 -174.216893 2.035868 0.820768 174.104364 -0.226573 -0.172037 -0.189346 0.184524 -16.513853 -1.398348 0.000000 0.000000 0.000000 7.313213 -2.612142 -0.993310 3.524171 -2.119755 7.217274 2.415564 5.501037 -16.335051 -4.126720 -6.873357 12.312240 0.000000 0.000000 0.000000 0.000000 0.000000 0.000000 18.358961 18.947381 -9.040074 14.603240 -29.063215 -4.154979 -13.250583 15.267812 -8.749869 12.445524 -13.512814 24.154210 0.000000 0.000000 0.000000 0.000000 0.000000 0.000000 -7.523818 4.957570 175.176086 -1.224995 0.080841 1.149033 10.171661 1.507171 3.190697 0.000000 0.000000 0.000000 -3.355811 3.357946 160.077892 6.023332 2.525211 17.869954 39.540360 50.389802 30.625254 0.000000 0.000000 0.000000
99.186807 17.024327 397.566026 -4.863788 4.063004 179.407056 3.153830 1.520822 -179.656195 -0.987632 -1.299233 -0.338309 0.208692 -16.251746 -1.549783 0.000000 0.000000 0.000000 7.463770 -1.247205 -0.361710 2.860767 -2.580408 9.002995 4.475224 5.872813 -22.361413 -9.355459 -13.332589 12.276704 0.000000 0.000000 0.000000 0.000000 0.000000 0.000000 19.355470 20.962459 -9.610687 15.048123 -29.848303 -3.763564 -13.847536 14.908188 -7.275253 10.907030 -12.744690 21.688916 0.000000 0.000000 0.000000 0.000000 0.000000 0.000000 -5.236833 4.127135 178.689875 -0.321397 0.122020 2.270392 7.566288 1.997626 2.093206 0.000000 0.000000 0.000000 -2.225257 2.447238 166.281419 6.489104 2.584651 18.114739 39.616679 50.634623 30.877646 0.000000 0.000000 0.000000
